<svg width="16" height="14" viewBox="0 0 16 14" fill="none" xmlns="http://www.w3.org/2000/svg">
<path d="M12.3127 14.0005C12.2074 14.0009 12.1047 13.9681 12.0192 13.9067L8.00015 10.993L3.98109 13.9067C3.89522 13.969 3.79178 14.0024 3.68571 14.002C3.57964 14.0016 3.47643 13.9675 3.39103 13.9046C3.30562 13.8417 3.24242 13.7532 3.21058 13.6521C3.17874 13.5509 3.1799 13.4422 3.2139 13.3417L4.7814 8.69891L0.718901 5.91298C0.630904 5.8527 0.56449 5.76586 0.529361 5.66515C0.494232 5.56444 0.492229 5.45513 0.523646 5.3532C0.555063 5.25127 0.618253 5.16206 0.703982 5.0986C0.789712 5.03514 0.893489 5.00076 1.00015 5.00048H6.01203L7.52453 0.34579C7.55711 0.245296 7.62068 0.157706 7.70613 0.0955837C7.79158 0.0334614 7.89451 0 8.00015 0C8.10579 0 8.20872 0.0334614 8.29417 0.0955837C8.37962 0.157706 8.44319 0.245296 8.47578 0.34579L9.98828 5.00204H15.0002C15.1069 5.00199 15.211 5.03613 15.2969 5.09947C15.3829 5.16281 15.4464 5.25201 15.478 5.35402C15.5096 5.45603 15.5077 5.56548 15.4726 5.66634C15.4375 5.76721 15.3711 5.85419 15.283 5.91454L11.2189 8.69891L12.7855 13.3405C12.8108 13.4156 12.818 13.4957 12.8063 13.5742C12.7946 13.6526 12.7644 13.7272 12.7182 13.7917C12.672 13.8561 12.6112 13.9087 12.5406 13.945C12.4701 13.9813 12.392 14.0003 12.3127 14.0005Z" fill="#EC8B05"/>
</svg>
